<svg width="48" height="48" viewBox="0 0 48 48" fill="none" xmlns="http://www.w3.org/2000/svg">
<g clip-path="url(#clip0)">
<path d="M24 0C19.2533 0 14.6131 1.40758 10.6663 4.04473C6.71954 6.68188 3.64341 10.4302 1.8269 14.8156C0.0103989 19.201 -0.464881 24.0266 0.461164 28.6822C1.38721 33.3377 3.67299 37.6141 7.02945 40.9706C10.3859 44.327 14.6623 46.6128 19.3178 47.5388C23.9734 48.4649 28.799 47.9896 33.1844 46.1731C37.5698 44.3566 41.3181 41.2805 43.9553 37.3337C46.5924 33.3869 48 28.7468 48 24C48 17.6348 45.4714 11.5303 40.9706 7.02944C36.4697 2.52856 30.3652 0 24 0V0ZM24 28.71C23.0685 28.71 22.1578 28.4338 21.3833 27.9162C20.6087 27.3987 20.005 26.6631 19.6485 25.8024C19.292 24.9418 19.1988 23.9948 19.3805 23.0811C19.5622 22.1675 20.0108 21.3282 20.6695 20.6695C21.3282 20.0108 22.1675 19.5622 23.0811 19.3805C23.9948 19.1988 24.9418 19.292 25.8025 19.6485C26.6631 20.005 27.3987 20.6087 27.9162 21.3833C28.4338 22.1578 28.71 23.0685 28.71 24C28.71 25.2492 28.2138 26.4472 27.3305 27.3305C26.4472 28.2138 25.2492 28.71 24 28.71Z" fill="#E4E8DA"/>
<path d="M16.59 26.81C16.2817 26.0131 16.0995 25.173 16.05 24.32V24.32C16.05 24.19 16.05 24.06 16.05 23.93C16.0527 23.0777 16.1876 22.231 16.45 21.42C16.7344 20.6191 17.1464 19.8695 17.67 19.2C16.3446 17.7749 14.5483 16.8774 12.6128 16.6734C10.6773 16.4694 8.7334 16.9726 7.13998 18.09C7.50022 19.3431 8.15513 20.4918 9.04998 21.44C7.90623 22.0256 6.91885 22.8759 6.16998 23.92C7.03049 25.1216 8.2026 26.0655 9.55998 26.65C8.52166 27.6787 7.785 28.9722 7.42998 30.39C8.50937 31.0898 9.73974 31.5227 11.0195 31.6531C12.2992 31.7836 13.5916 31.6077 14.79 31.14C15.9717 30.6808 17.0274 29.9473 17.87 29C17.3319 28.3411 16.9 27.6022 16.59 26.81V26.81Z" stroke="#8D8E89" stroke-miterlimit="10"/>
<path d="M31.44 22.57V13.32H41.26V15.42H33.55V20.57H34.12C35.6836 20.5006 37.245 20.749 38.71 21.3C39.7154 21.7282 40.5739 22.4407 41.18 23.35C41.7605 24.3143 42.052 25.4249 42.02 26.55C42.036 28.1667 41.4918 29.739 40.48 31C39.9066 31.6819 39.1802 32.2185 38.3599 32.5661C37.5396 32.9137 36.6487 33.0624 35.76 33C34.3431 33.06 32.9433 32.6716 31.76 31.89C31.3047 31.6039 30.9275 31.2093 30.6622 30.7416C30.3969 30.2738 30.2519 29.7476 30.24 29.21V29.09H32.53V29.21C32.5383 29.4942 32.6236 29.7709 32.7768 30.0104C32.93 30.2499 33.1454 30.4433 33.4 30.57C34.1235 30.9587 34.9397 31.142 35.76 31.1C36.3287 31.1501 36.901 31.0575 37.4249 30.8305C37.9487 30.6035 38.4076 30.2493 38.76 29.8C39.4083 28.9724 39.7604 27.9513 39.76 26.9C39.7638 26.3389 39.6522 25.783 39.432 25.2669C39.2118 24.7508 38.8877 24.2855 38.48 23.9C37.63 23.07 35.9 22.66 33.31 22.66L31.44 22.57Z" fill="#838B77" stroke="#41423B" stroke-linejoin="round"/>
<path d="M24 1.5C28.4501 1.5 32.8002 2.8196 36.5003 5.29193C40.2005 7.76427 43.0843 11.2783 44.7873 15.3896C46.4903 19.501 46.9358 24.025 46.0677 28.3895C45.1995 32.7541 43.0566 36.7632 39.9099 39.9099C36.7632 43.0566 32.7541 45.1995 28.3895 46.0677C24.025 46.9358 19.501 46.4903 15.3896 44.7873C11.2783 43.0843 7.76428 40.2004 5.29194 36.5003C2.81961 32.8002 1.50001 28.4501 1.50001 24C1.50001 18.0326 3.87054 12.3097 8.09011 8.0901C12.3097 3.87053 18.0326 1.5 24 1.5ZM24 29.5C25.083 29.5 26.1417 29.1791 27.0424 28.5778C27.9432 27.9766 28.6456 27.1219 29.0609 26.1217C29.4763 25.1215 29.586 24.0207 29.3761 22.9582C29.1663 21.8958 28.6464 20.9193 27.882 20.1521C27.1176 19.3849 26.143 18.8614 25.0813 18.6477C24.0196 18.434 22.9184 18.5397 21.9167 18.9514C20.915 19.3631 20.0578 20.0624 19.4533 20.9609C18.8487 21.8595 18.524 22.917 18.52 24C18.5174 24.7213 18.6572 25.4361 18.9314 26.1032C19.2056 26.7704 19.6089 27.3769 20.118 27.8879C20.6271 28.3989 21.2321 28.8043 21.8983 29.081C22.5644 29.3576 23.2787 29.5 24 29.5ZM24 0C19.2533 0 14.6131 1.40758 10.6663 4.04473C6.71954 6.68188 3.64341 10.4302 1.8269 14.8156C0.0103989 19.201 -0.464881 24.0266 0.461164 28.6822C1.38721 33.3377 3.67299 37.6141 7.02945 40.9706C10.3859 44.327 14.6623 46.6128 19.3178 47.5388C23.9734 48.4649 28.799 47.9896 33.1844 46.1731C37.5698 44.3566 41.3181 41.2805 43.9553 37.3337C46.5924 33.3869 48 28.7468 48 24C48 17.6348 45.4714 11.5303 40.9706 7.02944C36.4697 2.52856 30.3652 0 24 0V0ZM24 28C23.2089 28 22.4355 27.7654 21.7777 27.3259C21.1199 26.8864 20.6072 26.2616 20.3045 25.5307C20.0017 24.7998 19.9225 23.9956 20.0769 23.2196C20.2312 22.4437 20.6122 21.731 21.1716 21.1716C21.731 20.6122 22.4437 20.2312 23.2197 20.0769C23.9956 19.9225 24.7998 20.0017 25.5307 20.3045C26.2616 20.6072 26.8864 21.1199 27.3259 21.7777C27.7654 22.4355 28 23.2089 28 24C28 25.0609 27.5786 26.0783 26.8284 26.8284C26.0783 27.5786 25.0609 28 24 28Z" fill="#666C5C"/>
</g>
<defs>
<clipPath id="clip0">
<rect width="48" height="48" fill="white"/>
</clipPath>
</defs>
</svg>