<svg width="80" height="80" viewBox="0 0 80 80" fill="none" xmlns="http://www.w3.org/2000/svg">
<g filter="url(#filter0_dd)">
<g clip-path="url(#clip0)">
<path d="M40 63.25C35.4016 63.25 30.9064 61.8864 27.083 59.3317C23.2596 56.7769 20.2795 53.1458 18.5198 48.8974C16.7601 44.649 16.2996 39.9742 17.1968 35.4642C18.0939 30.9541 20.3082 26.8113 23.5598 23.5598C26.8113 20.3082 30.9541 18.0939 35.4642 17.1968C39.9742 16.2996 44.649 16.7601 48.8974 18.5198C53.1458 20.2795 56.7769 23.2596 59.3317 27.083C61.8864 30.9064 63.25 35.4016 63.25 40C63.25 46.1663 60.8005 52.08 56.4402 56.4402C52.08 60.8005 46.1663 63.25 40 63.25V63.25ZM40 35.86C39.1812 35.86 38.3808 36.1028 37.7 36.5577C37.0191 37.0126 36.4885 37.6592 36.1751 38.4157C35.8618 39.1722 35.7798 40.0046 35.9396 40.8077C36.0993 41.6108 36.4936 42.3484 37.0726 42.9274C37.6516 43.5064 38.3893 43.9007 39.1923 44.0605C39.9954 44.2202 40.8278 44.1382 41.5843 43.8249C42.3408 43.5115 42.9874 42.9809 43.4423 42.3001C43.8972 41.6193 44.14 40.8188 44.14 40V40C44.1348 38.9036 43.6969 37.8537 42.9216 37.0784C42.1464 36.3031 41.0964 35.8653 40 35.86V35.86Z" fill="#E4E8DA"/>
<path d="M40 17.5C44.4501 17.5 48.8002 18.8196 52.5003 21.2919C56.2004 23.7643 59.0843 27.2783 60.7873 31.3896C62.4903 35.501 62.9358 40.025 62.0677 44.3895C61.1995 48.7541 59.0566 52.7632 55.9099 55.9099C52.7632 59.0566 48.7541 61.1995 44.3895 62.0677C40.025 62.9358 35.501 62.4903 31.3896 60.7873C27.2783 59.0843 23.7643 56.2004 21.2919 52.5003C18.8196 48.8002 17.5 44.4501 17.5 40C17.5 34.0326 19.8705 28.3097 24.0901 24.0901C28.3097 19.8705 34.0326 17.5 40 17.5V17.5ZM40 44.89C40.9672 44.89 41.9126 44.6032 42.7167 44.0659C43.5209 43.5286 44.1477 42.7649 44.5178 41.8713C44.8879 40.9778 44.9847 39.9946 44.7961 39.046C44.6074 38.0974 44.1416 37.2261 43.4578 36.5422C42.7739 35.8584 41.9026 35.3926 40.954 35.204C40.0054 35.0153 39.0222 35.1121 38.1287 35.4822C37.2352 35.8523 36.4714 36.4791 35.9341 37.2833C35.3968 38.0874 35.11 39.0328 35.11 40V40C35.1127 41.2961 35.6287 42.5384 36.5452 43.4548C37.4617 44.3713 38.7039 44.8874 40 44.89V44.89ZM40 16C35.2533 16 30.6131 17.4076 26.6663 20.0447C22.7195 22.6819 19.6434 26.4302 17.8269 30.8156C16.0104 35.201 15.5351 40.0266 16.4612 44.6822C17.3872 49.3377 19.673 53.6141 23.0294 56.9706C26.3859 60.327 30.6623 62.6128 35.3178 63.5388C39.9734 64.4649 44.799 63.9896 49.1844 62.1731C53.5698 60.3566 57.3181 57.2805 59.9553 53.3337C62.5924 49.3869 64 44.7468 64 40C64 33.6348 61.4714 27.5303 56.9706 23.0294C52.4697 18.5286 46.3652 16 40 16V16ZM40 43.39C39.3295 43.39 38.6741 43.1912 38.1166 42.8187C37.5591 42.4462 37.1246 41.9167 36.8681 41.2973C36.6115 40.6779 36.5443 39.9962 36.6751 39.3386C36.806 38.681 37.1288 38.077 37.6029 37.6029C38.077 37.1288 38.6811 36.8059 39.3387 36.6751C39.9963 36.5443 40.6779 36.6115 41.2973 36.868C41.9167 37.1246 42.4462 37.5591 42.8187 38.1166C43.1912 38.6741 43.39 39.3295 43.39 40V40C43.39 40.8991 43.0329 41.7613 42.3971 42.3971C41.7614 43.0328 40.8991 43.39 40 43.39V43.39Z" fill="#666C5C"/>
<path d="M54.58 45.51C54.2996 44.4969 53.7812 43.5654 53.0681 42.7931C52.3549 42.0208 51.4676 41.4301 50.48 41.07C49.4966 40.7067 48.443 40.5733 47.4 40.68C47.3579 41.3685 47.199 42.0448 46.93 42.68C46.6924 43.3222 46.3549 43.9229 45.93 44.46V44.46C45.85 44.55 45.79 44.65 45.71 44.74C45.233 45.2394 44.6835 45.6642 44.08 46V46C43.88 46.1 43.69 46.2 43.49 46.28C42.8501 46.5379 42.1766 46.7029 41.49 46.77C41.4084 47.7958 41.5801 48.826 41.99 49.77C42.4145 50.7347 43.0618 51.585 43.8789 52.2508C44.696 52.9166 45.6594 53.379 46.69 53.6C47.4541 52.4129 47.8055 51.007 47.69 49.6C48.9762 50.15 50.4001 50.2931 51.77 50.01C51.9058 48.8261 51.7084 47.6277 51.2 46.55C52.3984 46.5056 53.564 46.1469 54.58 45.51V45.51Z" stroke="#8D8E89" stroke-miterlimit="10"/>
<path d="M39.08 33.07V21.94L36.44 23V21.54L39.08 20.35H40.64V33.07H39.08Z" fill="#838B77" stroke="#41423B" stroke-linejoin="round"/>
</g>
</g>
<defs>
<filter id="filter0_dd" x="-3" y="-1" width="86" height="86" filterUnits="userSpaceOnUse" color-interpolation-filters="sRGB">
<feFlood flood-opacity="0" result="BackgroundImageFix"/>
<feColorMatrix in="SourceAlpha" type="matrix" values="0 0 0 0 0 0 0 0 0 0 0 0 0 0 0 0 0 0 127 0"/>
<feOffset dy="1"/>
<feGaussianBlur stdDeviation="1"/>
<feColorMatrix type="matrix" values="0 0 0 0 0 0 0 0 0 0 0 0 0 0 0 0 0 0 0.04 0"/>
<feBlend mode="normal" in2="BackgroundImageFix" result="effect1_dropShadow"/>
<feColorMatrix in="SourceAlpha" type="matrix" values="0 0 0 0 0 0 0 0 0 0 0 0 0 0 0 0 0 0 127 0"/>
<feOffset dy="2"/>
<feGaussianBlur stdDeviation="1.5"/>
<feColorMatrix type="matrix" values="0 0 0 0 0 0 0 0 0 0 0 0 0 0 0 0 0 0 0.08 0"/>
<feBlend mode="normal" in2="effect1_dropShadow" result="effect2_dropShadow"/>
<feBlend mode="normal" in="SourceGraphic" in2="effect2_dropShadow" result="shape"/>
</filter>
<clipPath id="clip0">
<rect width="48" height="48" fill="white" transform="translate(16 16)"/>
</clipPath>
</defs>
</svg>
