<svg width="48" height="48" viewBox="0 0 48 48" fill="none" xmlns="http://www.w3.org/2000/svg">
<g clip-path="url(#clip0)">
<path d="M2.31 33.05C0.971923 29.8409 0.362596 26.3749 0.525955 22.9018C0.689313 19.4288 1.62129 16.0353 3.25468 12.966C4.88807 9.89667 7.18217 7.22804 9.97159 5.1525C12.761 3.07697 15.9762 1.64625 19.3854 0.963513C22.7946 0.280772 26.3128 0.363018 29.6863 1.20432C33.0599 2.04563 36.2047 3.62502 38.8941 5.82864C41.5835 8.03225 43.7504 10.8052 45.2386 13.9475C46.7267 17.0897 47.4991 20.5231 47.5 24C47.499 27.0903 46.8837 30.1495 45.69 33L2.31 33.05Z" fill="#FDFBED"/>
<path d="M24 1C30.1 1 35.9501 3.42321 40.2635 7.73654C44.5768 12.0499 47 17.9 47 24C47.0077 26.9298 46.4473 29.8334 45.35 32.55H2.65002C1.55269 29.8334 0.992353 26.9298 1.00002 24C1.00002 17.9 3.42323 12.0499 7.73656 7.73654C12.0499 3.42321 17.9 1 24 1ZM24 0C20.0211 0.00300316 16.1054 0.995203 12.6052 2.88732C9.10499 4.77944 6.13012 7.5121 3.94827 10.8394C1.76642 14.1668 0.446044 17.9843 0.10596 21.9487C-0.234124 25.913 0.416751 29.8997 2.00002 33.55H46C47.5833 29.8997 48.2342 25.913 47.8941 21.9487C47.554 17.9843 46.2336 14.1668 44.0518 10.8394C41.8699 7.5121 38.895 4.77944 35.3948 2.88732C31.8946 0.995203 27.9789 0.00300316 24 0V0Z" fill="#B97E13"/>
<path d="M46 33.55C44.1331 37.8321 41.057 41.4763 37.1491 44.0357C33.2413 46.595 28.6714 47.9583 24 47.9583C19.3286 47.9583 14.7587 46.595 10.8509 44.0357C6.94297 41.4763 3.86694 37.8321 2 33.55H46Z" fill="#F6F0CA"/>
<path d="M24 1.5C29.9658 1.5053 35.6856 3.87753 39.9041 8.09595C44.1225 12.3144 46.4947 18.0343 46.5 24C46.516 27.097 45.8824 30.163 44.64 33C42.8973 37.0269 40.0146 40.456 36.3472 42.865C32.6798 45.2739 28.3878 46.5574 24 46.5574C19.6122 46.5574 15.3202 45.2739 11.6528 42.865C7.98539 40.456 5.10276 37.0269 3.36001 33C2.11762 30.163 1.48399 27.097 1.50001 24C1.50531 18.0343 3.87754 12.3144 8.09596 8.09595C12.3144 3.87753 18.0343 1.5053 24 1.5ZM24 0C19.2533 0 14.6131 1.40758 10.6663 4.04473C6.71954 6.68188 3.64341 10.4302 1.8269 14.8156C0.0103989 19.201 -0.464881 24.0266 0.461164 28.6822C1.38721 33.3377 3.67299 37.6141 7.02945 40.9706C10.3859 44.327 14.6623 46.6128 19.3178 47.5388C23.9734 48.4649 28.799 47.9896 33.1844 46.1731C37.5698 44.3566 41.3181 41.2805 43.9553 37.3337C46.5924 33.3869 48 28.7468 48 24C48 17.6348 45.4714 11.5303 40.9706 7.02944C36.4697 2.52856 30.3652 0 24 0V0Z" fill="#A57014"/>
<path d="M8.46002 29.64V27.52C8.49873 26.2539 8.84173 25.0156 9.46002 23.91C10.3263 22.4038 11.5022 21.0984 12.91 20.08L14.32 19C15.6156 18.0875 16.7944 17.0195 17.83 15.82C18.3031 15.1834 18.5622 14.4132 18.57 13.62C18.5641 13.2201 18.4717 12.8262 18.299 12.4654C18.1264 12.1047 17.8777 11.7855 17.57 11.53C16.7721 10.8801 15.7567 10.5583 14.73 10.63C13.8473 10.5588 12.9663 10.7878 12.23 11.28C11.9868 11.4427 11.7857 11.6608 11.6432 11.9164C11.5006 12.1719 11.4207 12.4576 11.41 12.75V12.88H9.00002V12.75C9.01496 12.0209 9.27174 11.3173 9.73002 10.75C10.2577 10.0754 10.945 9.54268 11.73 9.20001C12.7231 8.78413 13.7939 8.58634 14.87 8.62001C17.18 8.62001 18.82 9.11001 19.81 10.09C20.2829 10.547 20.6572 11.0959 20.9101 11.703C21.1629 12.3101 21.2888 12.9625 21.28 13.62C21.2758 14.3768 21.1194 15.125 20.82 15.82C20.3846 16.7022 19.7638 17.48 19 18.1C18.2915 18.7378 17.5505 19.3386 16.78 19.9L15.78 20.58C12.5934 22.74 11 24.8433 11 26.89V27.39H21.64V29.64H8.46002Z" fill="#B97E13" stroke="#765623" stroke-miterlimit="10"/>
<path d="M32.07 30.26C30.9976 30.2706 29.9402 30.0081 28.9973 29.4973C28.0543 28.9864 27.2569 28.2441 26.68 27.34C25.191 24.9765 24.4713 22.2095 24.62 19.42C24.4708 16.6336 25.1906 13.8697 26.68 11.51C27.2663 10.6125 28.0671 9.8752 29.0099 9.36492C29.9527 8.85463 31.0079 8.5874 32.08 8.5874C33.1521 8.5874 34.2072 8.85463 35.1501 9.36492C36.0929 9.8752 36.8937 10.6125 37.48 11.51C38.9737 13.8678 39.6939 16.6331 39.54 19.42C39.694 22.21 38.9739 24.9786 37.48 27.34C36.9006 28.2463 36.0998 28.99 35.1533 29.5009C34.2067 30.0118 33.1456 30.273 32.07 30.26ZM32.07 28.26C32.8992 28.2725 33.7108 28.0204 34.3869 27.5403C35.063 27.0602 35.5685 26.377 35.83 25.59C36.6413 23.6395 37.0397 21.5421 37 19.43C37.0365 17.3321 36.6417 15.249 35.84 13.31C35.5558 12.5445 35.0442 11.8843 34.3739 11.4181C33.7035 10.9518 32.9065 10.702 32.09 10.702C31.2734 10.702 30.4765 10.9518 29.8061 11.4181C29.1357 11.8843 28.6241 12.5445 28.34 13.31C27.5383 15.249 27.1435 17.3321 27.18 19.43C27.1426 21.528 27.5375 23.6112 28.34 25.55C28.5999 26.3321 29.1008 27.0117 29.7709 27.4914C30.4411 27.9711 31.2459 28.2261 32.07 28.22V28.26Z" fill="#B97E13" stroke="#765623" stroke-miterlimit="10"/>
</g>
<defs>
<clipPath id="clip0">
<rect width="48" height="48" fill="white"/>
</clipPath>
</defs>
</svg>
